<svg t="1686217843508" class="icon" viewBox="0 0 1024 1024" version="1.1" xmlns="http://www.w3.org/2000/svg" p-id="6083" width="200" height="200"><path d="M492.735112 4.471157a44.133032 44.133032 0 0 1 38.501207-0.102396l422.335707 237.560635A40.95873 40.95873 0 0 1 972.771431 274.440388v475.121272a40.95873 40.95873 0 0 1-19.199405 32.459793l-422.386906 237.560636a43.928238 43.928238 0 0 1-38.398809 0l-422.386906-237.560636A40.95873 40.95873 0 0 1 51.2 749.56166V274.491587a40.95873 40.95873 0 0 1 19.250603-32.459794L492.735112 4.471157z m2.559921 67.940294L129.533572 278.177872a35.531699 35.531699 0 0 0-16.639485 28.159128v411.379247c0 10.393278 7.42377 22.988087 16.639485 28.159127l365.812659 205.715223c9.215714 5.119841 24.063254 5.119841 33.278969 0l365.81266-205.766422c9.215714-5.119841 16.639484-17.714651 16.639484-28.107928V306.183404a35.4805 35.4805 0 0 0-16.639484-28.107928L528.6252 72.309054a38.194016 38.194016 0 0 0-33.278969 0.102397z m65.994754 799.821606v-327.669842a40.190754 40.190754 0 0 0-18.841016-31.691818L179.708016 308.845722l309.136017-174.023405a42.494683 42.494683 0 0 1 37.682032 0l312.361517 175.661754a40.446746 40.446746 0 0 1 18.841016 31.845413v345.998874c0 11.775635-8.345341 25.855198-18.841016 31.743016l-277.648993 152.161683z m-60.055738 14.949936l-315.894207-169.00596a43.160262 43.160262 0 0 1-20.120977-34.046945v-317.942144l315.689414 187.898175c11.263651 6.348603 20.32577 21.810524 20.32577 34.302937v298.793937z" fill="currentColor" p-id="6084"></path></svg>